<?xml version="1.0" encoding="UTF-8"?>
<svg id="Layer_2" data-name="Layer 2" xmlns="http://www.w3.org/2000/svg" viewBox="0 0 542.52 905">
  <defs>
    <style>
      .cls-1 {
        fill: none;
        stroke: #fff6e7;
        stroke-miterlimit: 10;
        stroke-width: 18px;
      }
    </style>
  </defs>
  <path class="cls-1" d="m531.78,388.02c-104.38-39.04-321.33-57.79-466.21,14.46-43.49,21.69-60.89,60.72-55.67,83.86,12.52,55.49,83.03,79.83,147.87,91.08,138.52,24.04,257.05,14.86,341.63-1.36,17.4-3.34,33.96,7.81,33.8,22.65l.33,220.16c0,21.69-3.65,58.03-85.24,70.84-14.48,2.27-42.69,5.74-48.71,5.78-222.67,1.45-266.16,1.45-325.3-23.13-12.47-5.18-62.63-27.47-64.37-62.17v-185.06"/>
  <path class="cls-1" d="m296.93,473.32l19.14-297.83c-30.33-160.01-7.36-163.26,3.48-166.27s31.74,22.6,33.05,52.05c1.74,39.04-30.01,102.03-36.53,114.22"/>
  <path class="cls-1" d="m329.98,162.48c49.34-38.26,124.69-52.96,144.39-40.48,14.14,8.95,8.7,26.02-6.96,34.7-27.24,15.09-83.5,26.02-140.91,15.9"/>
  <path class="cls-1" d="m317.81,158.14c-78.28-41.93-121.77-34.7-135.69-27.47-10.57,5.49-14.19,32.46,15.66,43.37,43.49,15.9,113.72-3.86,116.55-5.78"/>
  <path class="cls-1" d="m309.11,172.6c-10.34,7.89-76.54,49.16-83.5,79.52-1.85,8.08,6.96,26.02,19.14,28.92,31.25,7.42,73.06-53.49,66.1-99.76"/>
  <path class="cls-1" d="m326.5,181.27c8.7,59.28,56.29,104.19,81.76,101.2,14.55-1.71,16.51-21.36,17.4-34.7,1.79-27.07-32.03-63.51-93.94-72.29"/>
</svg>